<?xml version="1.0" encoding="UTF-8" standalone="no"?>
<!DOCTYPE svg PUBLIC "-//W3C//DTD SVG 1.1//EN" "http://www.w3.org/Graphics/SVG/1.1/DTD/svg11.dtd">
<svg width="100%" height="100%" viewBox="0 0 1215 384" version="1.1" xmlns="http://www.w3.org/2000/svg" xmlns:xlink="http://www.w3.org/1999/xlink" xml:space="preserve" xmlns:serif="http://www.serif.com/" style="fill-rule:evenodd;clip-rule:evenodd;stroke-linejoin:round;stroke-miterlimit:2;">
    <g>
        <path d="M36.3,372.43C33.17,371.03 28.31,365.9 26.91,362.7C25.58,359.5 25.71,352.64 27.24,349.38C31.04,340.99 40.5,336.59 49.42,339.06C62.34,342.66 66.41,359.44 56.61,368.97C55.14,370.37 52.48,372.03 50.81,372.63C46.61,374.1 39.62,373.96 36.29,372.43L36.3,372.43ZM47.89,366.43C50.89,364.9 54.42,361.03 55.02,358.64C56.55,352.58 50.16,344.72 43.83,344.92C40.3,344.99 35.9,348.32 33.77,352.51L31.84,356.24L33.51,359.9C35.11,363.36 37.44,365.63 40.7,366.96C43.16,367.96 45.16,367.83 47.89,366.43Z" style="fill:rgb(138,138,138);fill-rule:nonzero;"/>
        <path d="M71.47,365.9C70.2,365.7 69.47,365.3 69.67,364.83C69.8,364.36 70.14,362.23 70.47,360.1L70.94,356.17L81.6,356.3C116.84,356.7 159.2,348.84 192.38,335.65C196.84,333.85 200.77,332.39 201.04,332.39C201.84,332.39 205.17,340.65 204.64,341.12C203.64,342.05 182.99,349.78 174.53,352.38C151.82,359.37 125.24,364.17 100.92,365.7C90.6,366.37 75.87,366.43 71.48,365.9L71.47,365.9Z" style="fill:rgb(138,138,138);fill-rule:nonzero;"/>
        <path d="M18.19,339.19C13.06,331.46 10.53,323.87 9.26,312.68C8.06,301.56 10.13,287.1 14.72,274.05C18.18,264.12 26.71,248 33.44,238.55C34.77,236.68 35.7,236.95 39.9,240.42L42.16,242.29L38.03,248.88C29.57,262.34 22.91,278.06 20.31,290.71C17.18,306.3 19.11,322.55 25.31,332.61C26.44,334.41 27.31,336.07 27.31,336.34C27.31,337.01 21.51,342.4 20.85,342.4C20.52,342.4 19.38,341 18.19,339.2L18.19,339.19Z" style="fill:rgb(138,138,138);fill-rule:nonzero;"/>
        <path d="M211.16,335.06C208.03,328.87 207.9,329.26 213.56,326.67C216.29,325.4 218.96,324.41 219.36,324.41C220.09,324.41 224.09,332.34 223.62,332.8C223.42,333 213.03,337.73 212.76,337.73C212.63,337.73 211.89,336.53 211.16,335.07L211.16,335.06Z" style="fill:rgb(138,138,138);fill-rule:nonzero;"/>
        <path d="M229.81,325.07L227.81,321.07L231.14,319.4C232.94,318.47 234.67,317.73 235,317.73C235.67,317.73 238.46,323.39 238.46,324.72C238.46,325.25 236.99,326.45 235.13,327.38L231.8,329.05L229.8,325.05L229.81,325.07Z" style="fill:rgb(138,138,138);fill-rule:nonzero;"/>
        <path d="M246.13,317.74C245.2,315.94 244.46,314.21 244.46,313.94C244.46,313.34 250.72,309.74 251.72,309.74C251.99,309.74 253.25,311.54 254.38,313.74L256.51,317.74L252.78,319.41C250.78,320.34 248.78,321.08 248.45,321.08C248.12,321.08 247.05,319.61 246.12,317.75L246.13,317.74Z" style="fill:rgb(138,138,138);fill-rule:nonzero;"/>
        <path d="M304.08,295.76C303.41,294.96 301.82,293.76 300.62,293.03C298.42,291.7 297.56,289.1 299.29,289.1C300.62,289.1 323.94,265.32 323.4,264.52C323.13,264.05 323.73,263.79 325,263.79C326.07,263.79 327.2,264.12 327.4,264.46C327.67,264.86 329,265.93 330.46,266.86C332.33,267.99 333.06,268.92 333.06,270.12C333.06,271.19 332.66,271.79 332.06,271.79C330.79,271.79 308.08,295.04 308.15,296.17C308.35,297.57 305.42,297.3 304.09,295.77L304.08,295.76Z" style="fill:rgb(138,138,138);fill-rule:nonzero;"/>
        <path d="M66.15,279.77C65.28,279.44 64.02,278.17 63.29,276.97C61.96,274.77 61.96,273.64 61.96,178.85C61.96,88.86 62.03,82.8 63.16,80.6C63.83,79.27 65.29,77.74 66.62,77.07C68.82,76 73.41,75.94 138.89,76.07L208.83,76.27L209.03,80.87C209.16,84.07 208.96,85.67 208.36,86.07C207.89,86.4 192.84,86.6 174.19,86.47L140.88,86.27L140.81,108.92C140.74,121.38 140.88,133.77 141.08,136.43L141.41,141.23L209.23,141.23L209.03,146.09L208.83,150.89L174.66,151.09L140.49,151.22L140.56,174.73C140.63,187.59 140.83,200.04 141.03,202.37L141.36,206.5L209.18,206.5L209.18,215.82L175.27,215.82C142.03,215.82 141.3,215.82 140.9,217.15C140.43,218.75 140.63,261.25 141.17,266.44L141.57,270.1L169.55,269.97C184.94,269.84 200.06,270.04 203.19,270.3L208.85,270.77L208.85,280.09L138.24,280.22C97.34,280.29 67.03,280.09 66.17,279.75L66.15,279.77ZM112.45,269.78L130.57,269.78L130.44,243L130.24,216.16L72.96,216.16L72.76,242.47C72.69,256.92 72.76,269.18 72.96,269.71C73.23,270.44 75.22,270.51 83.82,270.24C89.55,269.97 102.47,269.77 112.46,269.77L112.45,269.78ZM130.44,178.72L130.57,151.21L72.61,151.21L72.61,178.39C72.61,193.38 72.81,205.83 73.08,206.03C73.28,206.3 86.27,206.43 101.86,206.36L130.24,206.16L130.44,178.72ZM128.91,139.56L128.91,88.26L101.47,88.06L73.96,87.93L73.96,139.89L101.47,139.76L128.91,139.56Z" style="fill:rgb(138,138,138);fill-rule:nonzero;"/>
        <path d="M224.48,280.5L224.48,270.44L235.21,270.44L235.01,275.3L234.81,280.1L229.68,280.3L224.48,280.5Z" style="fill:rgb(138,138,138);fill-rule:nonzero;"/>
        <path d="M249.59,280.04C249.32,279.77 249.12,277.51 249.12,274.98L249.12,270.38L254.98,270.58L260.78,270.78L260.78,280.1L255.45,280.3C252.45,280.37 249.85,280.3 249.59,280.03L249.59,280.04Z" style="fill:rgb(138,138,138);fill-rule:nonzero;"/>
        <rect x="199.17" y="237.81" width="10" height="9.32" style="fill:rgb(138,138,138);fill-rule:nonzero;"/>
        <path d="M224.48,247.2L224.48,237.81L235.21,237.81L235.01,242.34L234.81,246.8L229.68,247L224.48,247.2Z" style="fill:rgb(138,138,138);fill-rule:nonzero;"/>
        <path d="M249.13,247.13L249.13,237.81L260.33,237.81L260.73,240.14C261,241.41 261,243.54 260.73,244.8L260.33,247.13L249.13,247.13Z" style="fill:rgb(138,138,138);fill-rule:nonzero;"/>
        <path d="M323.07,244.8C323.74,243.93 323.07,242.8 318.94,237.61C316.21,234.28 310.68,227.15 306.75,221.82C302.75,216.42 299.02,212.09 298.36,211.96C295.96,211.56 296.83,208.9 300.09,206.56C301.76,205.36 303.09,204.16 303.09,203.76C303.09,203.43 303.96,203.16 304.96,203.16C306.29,203.16 306.83,203.49 306.83,204.36C306.83,204.96 311.63,211.82 317.49,219.48C323.35,227.21 328.81,234.47 329.61,235.67C330.48,236.8 331.61,237.8 332.14,237.8C333.87,237.8 333.14,240.33 330.94,241.93C329.74,242.73 328.21,243.99 327.61,244.59C326.94,245.26 325.48,245.79 324.35,245.79C322.55,245.79 322.35,245.66 323.08,244.79L323.07,244.8Z" style="fill:rgb(138,138,138);fill-rule:nonzero;"/>
        <path d="M348.45,242.87C348.05,242.34 346.19,241.34 344.39,240.54C341.26,239.21 339.86,237.14 342.06,237.14C344.06,237.14 357.91,214.76 366.44,197.64C370.97,188.71 371.04,188.45 369.97,186.85C369.3,185.78 368.44,185.25 367.77,185.52C361.04,187.58 321.81,195.91 313.88,196.91C311.55,197.18 309.82,197.84 309.02,198.71C307.15,200.77 306.56,199.64 306.02,192.65C305.55,186.52 305.62,186.39 306.89,187.19C307.96,187.92 310.95,187.52 324.14,184.93C332.87,183.2 344.66,180.73 350.32,179.47C355.98,178.2 361.44,177.21 362.38,177.21C363.38,177.21 364.58,176.74 365.04,176.21C365.51,175.68 366.24,175.21 366.64,175.21C367.84,175.21 370.37,181.8 370.37,184.74C370.37,187.14 370.44,187.2 372.7,187.2C374.03,187.2 375.96,187.87 377.43,188.87C378.76,189.8 380.29,190.54 380.76,190.54C381.29,190.54 381.69,191.14 381.69,191.87C381.69,192.6 381.29,193.2 380.89,193.2C380.42,193.2 378.03,197.2 375.56,202.06C369.43,214.05 362.5,226.11 356.98,234.43C354.05,238.76 352.38,241.89 352.58,242.62C352.85,243.55 352.51,243.82 351.05,243.82C350.05,243.82 348.85,243.42 348.45,242.89L348.45,242.87Z" style="fill:rgb(138,138,138);fill-rule:nonzero;"/>
        <path d="M522.9,203.83L522.9,168.53L494.26,168.53L494.26,153.87L530.76,154L567.2,154.2L567.2,168.18L553.41,168.38L539.55,168.51L539.42,203.68L539.22,238.78L531.09,238.98L522.9,239.18L522.9,203.81L522.9,203.83Z" style="fill:rgb(138,138,138);fill-rule:nonzero;"/>
        <path d="M574.19,238.07C574.19,237.47 575.99,232.87 578.12,227.88C583.38,215.62 607.03,158.67 608.36,155.07C608.76,154 609.83,153.87 618.15,153.87L627.54,153.87L628.74,156.73C629.41,158.26 634.27,169.72 639.46,182.18C644.66,194.64 652.05,212.16 655.85,221.08C659.65,230.01 662.78,237.73 662.78,238.27C662.78,238.94 660.91,239.14 654.19,239.14L645.6,239.14L644.27,236.01C643.54,234.21 641.81,229.82 640.47,226.15C639.07,222.49 637.67,219.22 637.21,218.82C636.74,218.42 629.62,218.22 617.83,218.35L599.11,218.55L595.51,228.01C593.58,233.21 591.65,237.87 591.31,238.33C590.84,238.86 588.25,239.13 582.45,239.13C575.32,239.13 574.19,239 574.19,238.06L574.19,238.07ZM630.74,201.03C630.01,199.1 627.88,193.77 626.01,189.17C624.14,184.57 621.81,178.78 620.81,176.18C619.21,172.05 617.48,169.79 617.48,171.85C617.48,172.38 606.76,199.89 604.96,204.02C604.83,204.29 610.89,204.49 618.42,204.49L632.14,204.49L630.74,201.03Z" style="fill:rgb(138,138,138);fill-rule:nonzero;"/>
        <path d="M683.3,238.74C682.97,238.47 682.77,219.22 682.77,196.04L682.77,153.74L707.28,154.01C730.33,154.28 731.99,154.34 736.19,155.74C746.85,159.27 752.71,166.53 752.71,176.19C752.71,183.25 750.05,188.45 744.65,191.91C742.85,193.04 741.39,194.11 741.39,194.31C741.39,194.44 742.52,195.04 743.92,195.64C750.05,198.17 753.98,203.17 755.38,210.09C756.38,215.09 755.85,219.15 753.32,224.28C751.06,228.94 747.52,232.34 742.33,234.8C735,238.26 732.14,238.6 707.09,238.93C694.3,239.13 683.58,239 683.31,238.73L683.3,238.74ZM730.39,223.55C735.45,221.35 738.05,217.82 738.05,213.09C738.05,208.89 735.92,205.03 732.52,203.1C729.79,201.57 729.39,201.5 714.73,201.5L699.74,201.5L699.54,212.49C699.47,218.49 699.54,223.88 699.74,224.35C700.27,225.82 726.72,225.15 730.38,223.55L730.39,223.55ZM729.99,186.85C733.25,184.92 734.85,182.39 735.19,178.72C735.59,174.32 733.92,171.33 730.06,169.33C727.2,167.93 726.46,167.86 713.41,168L699.75,168.2L699.55,176.86C699.48,181.66 699.55,186.19 699.75,187.05L700.15,188.58L713.94,188.38C726.33,188.18 728,188.05 729.99,186.85Z" style="fill:rgb(138,138,138);fill-rule:nonzero;"/>
        <path d="M43.43,233.07C41.9,231.94 40.63,230.74 40.63,230.41C40.63,229.48 43.43,225.81 44.16,225.81C45.03,225.81 50.62,229.81 50.62,230.47C50.62,231.2 47.36,235.13 46.69,235.13C46.42,235.13 44.96,234.2 43.43,233.07Z" style="fill:rgb(138,138,138);fill-rule:nonzero;"/>
        <path d="M224.48,211.23C224.48,208.17 224.75,206.57 225.35,206.37C225.75,206.17 228.15,206.17 230.68,206.37L235.14,206.64L235.14,215.84L224.48,215.84L224.48,211.23Z" style="fill:rgb(138,138,138);fill-rule:nonzero;"/>
        <path d="M249.13,211.23C249.13,205.7 249.4,205.5 256.46,206.3L260.79,206.83L260.79,215.49L254.99,215.69L249.13,215.89L249.13,211.23Z" style="fill:rgb(138,138,138);fill-rule:nonzero;"/>
        <rect x="199.17" y="172.53" width="10" height="9.32" style="fill:rgb(138,138,138);fill-rule:nonzero;"/>
        <path d="M224.48,181.92L224.48,172.53L235.21,172.53L235.01,177.06L234.81,181.52L229.68,181.72L224.48,181.92Z" style="fill:rgb(138,138,138);fill-rule:nonzero;"/>
        <path d="M249.59,181.38C249.32,181.18 249.12,179.05 249.12,176.72L249.12,172.52L260.44,172.52L260.44,181.84L255.24,181.84C252.38,181.84 249.78,181.64 249.58,181.37L249.59,181.38Z" style="fill:rgb(138,138,138);fill-rule:nonzero;"/>
        <path d="M366.76,168.93C366.96,168.33 365.03,166.2 361.5,163.07C358.44,160.41 351.91,154.61 346.98,150.21C326.93,132.16 298.15,107.91 296.95,107.91C296.68,107.91 296.42,121.57 296.42,138.22L296.42,168.6L291.62,168.4L286.76,168.2L286.56,138.29C286.43,111.51 286.29,108.31 285.29,107.58C284.42,106.91 285.16,106.71 289.49,106.38C292.35,106.11 294.82,105.71 295.02,105.38C295.22,105.11 296.75,104.05 298.35,102.92C299.95,101.85 301.35,100.59 301.55,100.12C302.02,98.99 305.08,98.99 305.08,100.12C305.08,100.59 313.87,108.45 324.53,117.57C349.11,138.55 364.23,151.74 369.49,156.74C372.22,159.34 374.02,160.54 374.69,160.34C375.36,160.01 375.69,160.34 375.69,161.27C375.69,163.27 369.69,169.86 367.9,169.86C366.9,169.86 366.5,169.53 366.77,168.93L366.76,168.93Z" style="fill:rgb(138,138,138);fill-rule:nonzero;"/>
        <path d="M395.34,149.81C393.87,148.68 392.54,147.55 392.48,147.15C392.35,146.82 393.21,145.35 394.35,143.89L396.48,141.23L399.34,143.23C400.94,144.36 402.4,145.49 402.6,145.83C403,146.43 399.2,151.89 398.47,151.83C398.2,151.83 396.8,150.9 395.34,149.83L395.34,149.81Z" style="fill:rgb(138,138,138);fill-rule:nonzero;"/>
        <path d="M224.48,151.27L224.48,141.15L229.68,141.35L234.81,141.55L234.81,150.87L229.68,151.07L224.48,151.27Z" style="fill:rgb(138,138,138);fill-rule:nonzero;"/>
        <path d="M249.59,150.74C248.72,149.94 249.06,141.88 249.99,141.55C250.39,141.42 253.05,141.48 255.79,141.75L260.79,142.22L260.99,145.15C261.39,150.95 261.12,151.21 255.19,151.21C252.33,151.21 249.79,151.01 249.59,150.74Z" style="fill:rgb(138,138,138);fill-rule:nonzero;"/>
        <path d="M402.8,139.02L399.6,136.22L402.86,131.22C413.25,115.1 419.65,99.98 422.78,83.99C423.91,77.93 424.31,63.41 423.45,59.21L422.98,56.81L417.65,56.41C408.39,55.81 401.8,51.48 397.87,43.42C396.27,40.16 396,38.82 396,33.63L396,27.63L390.6,25.83C360.42,15.7 316.06,22.1 275.49,42.42C272.29,44.02 269.23,45.22 268.76,45.02C268.29,44.89 266.89,43.29 265.7,41.56C263.17,37.83 262.7,38.3 273.09,33.03C291.21,23.77 309.53,17.64 330.38,13.85C337.77,12.52 340.77,12.32 357.36,12.32C374.35,12.32 376.61,12.45 383.01,13.85C386.81,14.72 392.6,16.38 395.8,17.58L401.6,19.78L403,18.31C405.26,15.91 410.33,13.51 414.66,12.71C425.12,10.78 435.51,16.37 440.04,26.23C441.57,29.69 441.77,30.69 441.51,35.56C441.11,42.15 439.11,46.55 434.65,50.48L431.65,53.14L432.45,56.67C433.72,61.93 433.52,79.58 432.12,86.65C429.19,101.64 423.39,116.09 414.6,130.68C409.74,138.67 407.47,141.87 406.67,141.8C406.34,141.8 404.54,140.53 402.81,139L402.8,139.02ZM424.78,46.03C428.11,44.5 431.37,40.3 431.97,36.7C432.57,33.17 431.3,29.11 428.84,26.24C425.91,22.98 423.31,21.78 418.91,21.78C411.18,21.85 405.65,27.04 405.65,34.3C405.65,44.03 415.64,50.15 424.77,46.02L424.78,46.03Z" style="fill:rgb(138,138,138);fill-rule:nonzero;"/>
        <rect x="199.17" y="106.58" width="10" height="9.32" style="fill:rgb(138,138,138);fill-rule:nonzero;"/>
        <rect x="224.48" y="106.58" width="10.66" height="9.32" style="fill:rgb(138,138,138);fill-rule:nonzero;"/>
        <path d="M249.13,115.91L249.13,106.58L260.26,106.58L260.66,110.31C261.26,115.84 261.19,115.91 254.73,115.91L249.13,115.91Z" style="fill:rgb(138,138,138);fill-rule:nonzero;"/>
        <path d="M226.35,86.13C224.55,85.86 224.48,85.73 224.48,81.2L224.48,76.6L235.14,76.6L235.14,81.2C235.14,86.8 234.21,87.33 226.35,86.13Z" style="fill:rgb(138,138,138);fill-rule:nonzero;"/>
        <path d="M249.59,86.13C249.32,85.93 249.12,83.67 249.12,81.13L249.12,76.6L254.72,76.6C261.11,76.6 261.11,76.6 261.11,82.26C261.11,84.86 260.84,85.86 260.04,86.19C258.64,86.72 250.11,86.72 249.58,86.12L249.59,86.13Z" style="fill:rgb(138,138,138);fill-rule:nonzero;"/>
        <path d="M237.34,57.29C236.14,55.49 235.14,53.83 235.14,53.63C235.14,53.36 239.8,50.77 242.53,49.43C243.06,49.16 246.46,54.89 246.46,56.09C246.46,56.89 245.19,57.69 239.8,60.42C239.6,60.49 238.47,59.09 237.34,57.29Z" style="fill:rgb(138,138,138);fill-rule:nonzero;"/>
        <path d="M251.13,50.36C250.06,48.69 249.13,47.1 249.13,46.76C249.13,45.96 255.86,41.96 256.52,42.36C257.19,42.76 260.45,48.62 260.45,49.35C260.45,49.88 254.39,53.28 253.52,53.28C253.32,53.28 252.25,51.95 251.12,50.35L251.13,50.36Z" style="fill:rgb(138,138,138);fill-rule:nonzero;"/>
    </g>
    <g>
        <path d="M38.7,368.96C35.5,367.69 33.1,365.36 31.57,362.1C29.51,357.7 29.57,354.77 31.7,350.44C36.03,341.71 46.89,339.92 53.68,346.78C60.34,353.44 58.48,364.03 49.88,368.43C47.15,369.76 41.49,370.1 38.69,368.96L38.7,368.96Z" style="fill:rgb(101,79,185);fill-rule:nonzero;"/>
        <path d="M285.1,321.67C277.04,318.07 272.78,309.08 275.04,300.62C276.11,296.82 279.57,292.43 283.03,290.49C286.96,288.36 296.35,287.69 299.88,289.36C308.74,293.56 312.94,303.61 309.54,312.41C308.21,316.01 303.01,321.27 299.81,322.34C296.08,323.54 288.49,323.21 285.09,321.67L285.1,321.67Z" style="fill:rgb(101,79,185);fill-rule:nonzero;"/>
        <path d="M333.26,271.98C332.06,271.85 331.06,271.45 331.06,271.05C331.06,270.52 327.8,268.12 324.13,265.99C323.33,265.52 322.93,265.12 323.2,265.12C323.47,265.12 322.93,263.52 322.07,261.66C319.21,255.53 320.34,247.21 324.6,243.47C330.4,238.34 331.19,237.94 337.19,237.41C342.39,237.01 343.19,237.14 346.45,238.61C351.11,240.74 354.04,243.81 355.71,248.27C358.24,255 356.98,261.53 352.18,266.85C347.85,271.58 342.19,273.11 333.26,271.98Z" style="fill:rgb(101,79,185);fill-rule:nonzero;"/>
        <path d="M1071.78,240.47C1060.99,238.94 1050.53,233.94 1046.33,228.21C1043.93,224.88 1040.47,218.22 1040.47,216.89C1040.47,216.36 1040.8,215.69 1041.2,215.42C1042.07,214.89 1055.52,211.82 1057.05,211.82C1057.72,211.82 1058.52,212.75 1059.05,214.22C1060.12,217.15 1063.91,221.55 1066.71,222.95C1070.24,224.75 1075.24,225.81 1080.63,225.81C1092.29,225.81 1099.55,218.62 1095.75,210.82C1093.95,207.09 1091.02,205.62 1080.63,203.43C1057.52,198.43 1049.99,194.84 1045.99,186.64C1044.39,183.31 1044.12,182.11 1044.19,177.18C1044.26,170.59 1045.59,166.86 1049.52,162.53C1055.71,155.67 1066.64,152.27 1081.43,152.47C1091.09,152.6 1100.68,156.13 1105.94,161.33C1108.94,164.39 1112.73,171.19 1113.47,174.99C1113.87,176.99 1113.74,177.12 1111.34,177.79C1106.88,178.92 1099.48,179.99 1097.82,179.79C1096.69,179.59 1096.02,178.92 1095.69,177.66C1094.82,174.46 1091.96,171.4 1087.96,169.4C1084.5,167.73 1083.43,167.53 1077.77,167.6C1072.44,167.6 1071.04,167.87 1068.78,169.13C1064.25,171.73 1062.45,173.79 1062.45,176.52C1062.45,181.85 1065.38,183.45 1081.5,187.04C1088.09,188.51 1095.22,190.37 1097.42,191.1C1110.01,195.5 1115.61,203.29 1114.94,215.41C1114.74,219.67 1114.27,221.8 1112.88,224.6C1111.15,228.2 1104.29,235.79 1102.82,235.79C1102.42,235.79 1101.02,236.46 1099.76,237.26C1095.43,239.99 1080.78,241.66 1071.78,240.46L1071.78,240.47Z" style="fill:rgb(101,79,185);fill-rule:nonzero;"/>
        <path d="M797.54,238.34C796.74,237.21 793.68,230.35 784.02,208.16C779.56,197.9 774.03,185.18 771.7,179.85C762.71,159.27 760.91,154.87 761.38,154.34C761.58,154.07 766.11,153.94 771.31,154.01L780.77,154.21L788.1,171.86C792.16,181.59 798.03,195.84 801.16,203.5C804.29,211.23 807.09,217.69 807.35,218.02C807.55,218.29 809.02,215.42 810.55,211.69C813.48,204.23 825.07,175.85 830.67,162.4L834.13,153.87L843.72,153.87C848.98,153.87 853.31,154.07 853.31,154.27C853.31,154.47 849.11,164.46 843.92,176.45C838.72,188.37 831.2,205.83 827.2,215.15C823.14,224.48 819.14,233.73 818.34,235.67L816.74,239.13L807.48,239.13C800.82,239.13 798.02,238.86 797.55,238.33L797.54,238.34Z" style="fill:rgb(101,79,185);fill-rule:nonzero;"/>
        <path d="M867.62,238.34C867.42,237.87 867.35,218.76 867.42,195.84L867.62,154.21L899.46,154.01L931.3,153.88L931.1,161.34L930.9,168.87L908.19,169.07L885.41,169.2L885.08,171C884.88,172 884.88,176.2 885.08,180.33L885.48,187.86L925.78,187.86L926.05,194.39C926.18,197.92 926.05,201.25 925.72,201.72C925.25,202.32 920.46,202.52 905.67,202.52C891.42,202.52 886.02,202.72 885.42,203.32C884.55,204.19 884.22,220.77 885.02,222.77C885.35,223.7 888.08,223.84 908.67,223.84L931.92,223.84L931.92,239.16L899.95,239.16C874.97,239.16 867.84,238.96 867.64,238.36L867.62,238.34Z" style="fill:rgb(101,79,185);fill-rule:nonzero;"/>
        <path d="M954.35,238.74C954.08,238.47 953.88,219.56 953.88,196.71C953.88,157.74 953.95,155.14 955.08,154.68C955.68,154.41 966.54,154.21 979.19,154.21C1003.97,154.21 1005.37,154.34 1012.5,157.94C1019.69,161.47 1024.49,168.13 1025.69,176.19C1027.56,187.91 1021.89,198.7 1011.63,203.1C1010.03,203.83 1008.5,204.63 1008.3,204.97C1008.1,205.3 1012.43,212.76 1017.96,221.56C1023.49,230.29 1028.15,237.88 1028.28,238.35C1028.55,239.02 1026.48,239.15 1018.42,239.02L1008.23,238.82L998.97,223.5C993.91,215.11 989.58,207.98 989.31,207.78C989.04,207.51 985.11,207.51 980.52,207.71L972.19,208.18L971.53,238.82L963.14,239.02C958.54,239.09 954.61,238.95 954.35,238.75L954.35,238.74ZM1001.58,190.78C1005.78,187.38 1006.71,185.72 1006.78,181.32C1006.85,176.32 1004.65,172.66 1000.39,170.6C997.73,169.33 996.33,169.2 984.67,169.2L971.88,169.2L971.88,193.25L999.06,192.85L1001.59,190.79L1001.58,190.78Z" style="fill:rgb(101,79,185);fill-rule:nonzero;"/>
        <path d="M1134.07,238.34C1133.87,237.87 1133.8,218.89 1133.87,196.17L1134.07,154.87L1164.58,154.67L1195.02,154.54L1195.02,169.2L1173.24,169.33L1151.39,169.53L1151.19,178.66L1150.99,187.85L1170.51,187.98L1190.03,188.18L1190.03,202.16L1170.58,202.36L1151.06,202.49L1151.06,223.81L1195.02,223.81L1195.02,239.13L1164.71,239.13C1141.06,239.13 1134.27,238.93 1134.07,238.33L1134.07,238.34Z" style="fill:rgb(101,79,185);fill-rule:nonzero;"/>
        <path d="M285.1,211.49C275.57,208.43 270.51,197.3 274.58,188.38C276.18,184.98 279.24,181.85 283.04,179.85C285.77,178.45 294.7,178.18 298.03,179.45C301.56,180.78 308.02,187.51 308.16,189.91C308.23,190.78 308.43,193.04 308.63,194.84C309.36,200.9 307.7,203.97 300.44,210.09C298.38,211.82 297.51,212.09 293.11,212.29C289.98,212.42 286.98,212.09 285.12,211.49L285.1,211.49Z" style="fill:rgb(101,79,185);fill-rule:nonzero;"/>
        <path d="M377.29,191.91C375.76,191.24 374.29,190.31 374.09,189.91C373.82,189.51 373.09,189.18 372.49,189.18C371.16,189.18 369.16,186.25 367.03,181.05C366.16,178.92 365.16,177.19 364.77,177.19C364.37,177.19 364.44,176.86 364.9,176.39C365.37,175.92 365.7,174.72 365.7,173.73C365.7,170.93 367.17,167.93 370.36,164.34C374.22,160.01 376.16,159.14 383.35,158.74C388.81,158.41 389.88,158.54 392.61,159.81C401.07,163.94 404.73,175.2 400.47,183.66C398.47,187.52 393.01,192.25 389.88,192.79C385.22,193.52 380.09,193.19 377.29,191.92L377.29,191.91Z" style="fill:rgb(101,79,185);fill-rule:nonzero;"/>
        <path d="M71.94,113.91L71.94,85.93L101.45,86.06L130.89,86.26L130.89,141.54L101.45,141.74L71.94,141.87L71.94,113.89L71.94,113.91Z" style="fill:rgb(101,79,185);fill-rule:nonzero;"/>
        <path d="M283.43,107.05C276.7,103.92 273.11,98.32 273.11,91.2C273.11,86.54 274.11,83.74 277.04,80.41C280.64,76.35 283.17,75.15 289.3,74.81C295.3,74.41 297.89,75.28 302.29,78.87C307.02,82.87 308.88,92.39 306.15,98.25C304.95,100.71 300.09,105.91 299.02,105.91C298.75,105.91 298.09,106.38 297.49,106.91C296.89,107.58 294.69,108.04 291.63,108.24C287.5,108.51 286.3,108.37 283.44,107.04L283.43,107.05Z" style="fill:rgb(101,79,185);fill-rule:nonzero;"/>
    </g>
</svg>
